<svg xmlns="http://www.w3.org/2000/svg" width="49" height="49" viewBox="0 0 49 49"><defs><clipPath id="wwboa"><path fill="#fff" d="M0 49V0h49v49zm2-24.5C2 36.926 12.074 47 24.5 47S47 36.926 47 24.5C47 12.073 36.926 2 24.5 2S2 12.073 2 24.5z"/></clipPath></defs><g><g><path fill="#de2b24" d="M24.5 2C36.926 2 47 12.073 47 24.5 47 36.926 36.926 47 24.5 47S2 36.926 2 24.5C2 12.073 12.074 2 24.5 2z"/><path fill="none" stroke="#fff" stroke-linecap="round" stroke-linejoin="round" stroke-miterlimit="50" stroke-width="4" d="M24.5 2C36.926 2 47 12.073 47 24.5 47 36.926 36.926 47 24.5 47S2 36.926 2 24.5C2 12.073 12.074 2 24.5 2z" clip-path="url(&quot;#wwboa&quot;)"/></g></g></svg>